<svg width="121" height="16" viewBox="0 0 121 16" fill="none" xmlns="http://www.w3.org/2000/svg">
<g clip-path="url(#clip0_2_36)">
<path d="M21.9985 0.25H2.55626C1.45496 0.25 0.56218 1.14543 0.56218 2.25V13.75C0.56218 14.8546 1.45496 15.75 2.55626 15.75H21.9985C23.0998 15.75 23.9926 14.8546 23.9926 13.75V2.25C23.9926 1.14543 23.0998 0.25 21.9985 0.25Z" fill="white" stroke="black" stroke-opacity="0.2" stroke-width="0.5"/>
<path d="M3.09239 5.91444C2.5708 5.62751 1.97551 5.39674 1.30995 5.23659L1.33787 5.11188H4.06674C4.43663 5.12489 4.73676 5.23651 4.83443 5.63071L5.42749 8.46659L5.60916 9.32073L7.27021 5.11188H9.06371L6.39772 11.2775H4.60413L3.09239 5.91444ZM10.383 11.2841H8.68687L9.74773 5.11188H11.4437L10.383 11.2841ZM16.5315 5.26277L16.3008 6.59559L16.1474 6.53004C15.8405 6.40525 15.4354 6.28054 14.884 6.29371C14.2144 6.29371 13.914 6.56277 13.9071 6.82546C13.9071 7.11441 14.2704 7.30484 14.8636 7.58725C15.8408 8.02719 16.2941 8.56557 16.2873 9.26819C16.2736 10.5486 15.115 11.3761 13.3353 11.3761C12.5744 11.3694 11.8415 11.2181 11.4437 11.0476L11.681 9.66205L11.9043 9.76066C12.4557 9.99071 12.8186 10.089 13.4957 10.089C13.9841 10.089 14.5076 9.89838 14.5143 9.48488C14.5143 9.21565 14.2912 9.01851 13.635 8.71646C12.993 8.42087 12.1346 7.92848 12.1485 7.04198C12.1558 5.84042 13.3353 5 15.0102 5C15.6663 5 16.197 5.13789 16.5315 5.26277ZM18.7858 9.09749H20.1956C20.1258 8.78889 19.8046 7.31147 19.8046 7.31147L19.6861 6.77964C19.6024 7.00943 19.4559 7.38373 19.463 7.37056C19.463 7.37056 18.9255 8.7429 18.7858 9.09749ZM20.8794 5.11188L22.2477 11.284H20.6773C20.6773 11.284 20.5236 10.5748 20.4749 10.3581H18.2973C18.2343 10.5222 17.9413 11.284 17.9413 11.284H16.1616L18.681 5.62399C18.8555 5.22342 19.1629 5.11188 19.5675 5.11188H20.8794Z" fill="#171E6C"/>
</g>
<g clip-path="url(#clip1_2_36)">
<path d="M54.1767 0H34.2359C33.1346 0 32.2419 0.89543 32.2419 2V14C32.2419 15.1046 33.1346 16 34.2359 16H54.1767C55.278 16 56.1708 15.1046 56.1708 14V2C56.1708 0.89543 55.278 0 54.1767 0Z" fill="#252525"/>
<path d="M41.2152 13C43.9684 13 46.2004 10.7614 46.2004 8C46.2004 5.23858 43.9684 3 41.2152 3C38.462 3 36.23 5.23858 36.23 8C36.23 10.7614 38.462 13 41.2152 13Z" fill="#EB001B"/>
<path d="M47.1974 13C49.9507 13 52.1826 10.7614 52.1826 8C52.1826 5.23858 49.9507 3 47.1974 3C44.4442 3 42.2122 5.23858 42.2122 8C42.2122 10.7614 44.4442 13 47.1974 13Z" fill="#F79E1B"/>
<path fill-rule="evenodd" clip-rule="evenodd" d="M44.2063 3.99951C45.4171 4.91172 46.2004 6.36406 46.2004 7.99988C46.2004 9.6357 45.4171 11.088 44.2063 12.0002C42.9954 11.088 42.2122 9.6357 42.2122 7.99988C42.2122 6.36406 42.9954 4.91172 44.2063 3.99951V3.99951Z" fill="#FF5F00"/>
</g>
<g clip-path="url(#clip2_2_36)">
<path d="M86.1056 0H66.1648C65.0635 0 64.1707 0.89543 64.1707 2V14C64.1707 15.1046 65.0635 16 66.1648 16H86.1056C87.2069 16 88.0997 15.1046 88.0997 14V2C88.0997 0.89543 87.2069 0 86.1056 0Z" fill="#016FD0"/>
<path fill-rule="evenodd" clip-rule="evenodd" d="M77.894 13.3938V7.69238L88.0115 7.70149V9.27638L86.8421 10.5298L88.0115 11.7947V13.403H86.1445L85.1522 12.3048L84.167 13.4071L77.894 13.3938Z" fill="#FFFFFE"/>
<path fill-rule="evenodd" clip-rule="evenodd" d="M78.5698 12.7687V8.31982H82.3309V9.34471H79.7876V10.0404H82.2703V11.0482H79.7876V11.7315H82.3309V12.7687H78.5698Z" fill="#016FD0"/>
<path fill-rule="evenodd" clip-rule="evenodd" d="M82.3121 12.7689L84.3933 10.5419L82.312 8.32007H83.9229L85.1946 9.7301L86.4699 8.32007H88.0115V8.35507L85.9747 10.5419L88.0115 12.7057V12.7689H86.4544L85.1602 11.3447L83.8792 12.7689H82.3121Z" fill="#016FD0"/>
<path fill-rule="evenodd" clip-rule="evenodd" d="M78.3659 2.63184H80.8047L81.6613 4.58269V2.63184H84.6722L85.1914 4.09341L85.7124 2.63184H88.0115V8.33323H75.8611L78.3659 2.63184Z" fill="#FFFFFE"/>
<path fill-rule="evenodd" clip-rule="evenodd" d="M78.8277 3.25146L76.8595 7.69664H78.2094L78.5807 6.80647H80.5927L80.9637 7.69664H82.3472L80.3872 3.25146H78.8277ZM78.9968 5.8089L79.587 4.39383L80.1768 5.8089H78.9968Z" fill="#016FD0"/>
<path fill-rule="evenodd" clip-rule="evenodd" d="M82.3288 7.69582V3.25073L84.2262 3.25727L85.2026 5.99L86.1853 3.25073H88.0115V7.69582L86.8364 7.70625V4.6529L85.7271 7.69582H84.6545L83.5222 4.64247V7.69582H82.3288Z" fill="#016FD0"/>
</g>
<g clip-path="url(#clip3_2_36)">
<path d="M118.032 15.7499L118.034 15.7499C118.986 15.7581 119.767 14.9773 119.779 14.0042L119.779 2.0063C119.776 1.53569 119.589 1.08617 119.261 0.756802C118.933 0.428269 118.492 0.246149 118.032 0.250071L98.0944 0.250062C97.6362 0.246149 97.195 0.428269 96.8677 0.756802C96.5395 1.08617 96.3528 1.53569 96.3489 2.00426L96.3489 13.9937C96.3528 14.4643 96.5395 14.9138 96.8677 15.2432C97.195 15.5717 97.6362 15.7538 98.0965 15.7499H118.032ZM118.031 16.2499C118.03 16.2499 118.03 16.2499 118.03 16.2499L118.032 16.2499H118.031Z" fill="white" stroke="black" stroke-opacity="0.2" stroke-width="0.5"/>
<path d="M108.675 15.9999H118.032C118.557 16.0043 119.062 15.7993 119.437 15.4299C119.811 15.0605 120.024 14.557 120.029 14.0303V11.6716C116.495 13.7059 112.663 15.1668 108.675 15.9999Z" fill="#F27712"/>
<path d="M119.203 9.29643H118.354L117.396 8.03023H117.306V9.29643H116.613V6.15161H117.636C118.436 6.15161 118.898 6.48264 118.898 7.0785C118.898 7.56678 118.609 7.88126 118.09 7.98057L119.203 9.29643ZM118.18 7.10333C118.18 6.79712 117.949 6.63988 117.52 6.63988H117.306V7.59161H117.504C117.949 7.59161 118.18 7.42609 118.18 7.10333ZM114.187 6.15161H116.15V6.68126H114.88V7.38471H116.101V7.92264H114.88V8.77505H116.15V9.30471H114.187V6.15161ZM111.959 9.37919L110.457 6.14333H111.216L112.165 8.26195L113.122 6.14333H113.865L112.347 9.37919H111.975H111.959ZM105.68 9.37092C104.623 9.37092 103.798 8.65092 103.798 7.71574C103.798 6.8054 104.64 6.06885 105.696 6.06885C105.993 6.06885 106.241 6.12678 106.546 6.25919V6.98747C106.315 6.75965 106.004 6.63187 105.68 6.63161C105.019 6.63161 104.516 7.11161 104.516 7.71574C104.516 8.35299 105.011 8.80816 105.713 8.80816C106.026 8.80816 106.265 8.70885 106.546 8.46057V9.18885C106.232 9.32126 105.968 9.37092 105.68 9.37092ZM103.584 8.33643C103.584 8.94885 103.08 9.37092 102.354 9.37092C101.826 9.37092 101.447 9.18885 101.125 8.77505L101.579 8.38609C101.735 8.66747 101.999 8.80816 102.329 8.80816C102.643 8.80816 102.866 8.61781 102.866 8.36954C102.866 8.22885 102.8 8.12126 102.66 8.0385C102.506 7.96365 102.346 7.90271 102.181 7.85643C101.529 7.64954 101.306 7.42609 101.306 6.98747C101.306 6.47436 101.785 6.0854 102.412 6.0854C102.808 6.0854 103.163 6.20954 103.46 6.44126L103.097 6.85505C102.953 6.69683 102.749 6.60671 102.536 6.60678C102.239 6.60678 102.024 6.75574 102.024 6.95436C102.024 7.11988 102.148 7.21092 102.561 7.35161C103.353 7.59988 103.584 7.83161 103.584 8.34471V8.33643ZM100.176 6.15161H100.869V9.30471H100.176V6.15161ZM97.948 9.30471H96.9248V6.15161H97.948C99.0702 6.15161 99.8458 6.79712 99.8458 7.72402C99.8458 8.19574 99.6148 8.64264 99.2105 8.94057C98.8639 9.18885 98.4761 9.30471 97.9398 9.30471H97.948ZM98.7566 6.93781C98.5256 6.75574 98.2616 6.68954 97.8077 6.68954H97.6179V8.77505H97.8077C98.2533 8.77505 98.5338 8.6923 98.7566 8.52678C98.9959 8.32816 99.1362 8.03023 99.1362 7.72402C99.1362 7.41781 98.9959 7.12816 98.7566 6.93781Z" fill="black"/>
<path d="M108.477 6.06885C107.569 6.06885 106.826 6.79712 106.826 7.69919C106.826 8.65919 107.536 9.37919 108.477 9.37919C109.401 9.37919 110.127 8.65092 110.127 7.72402C110.127 6.79712 109.409 6.06885 108.477 6.06885Z" fill="#F27712"/>
</g>
<defs>
<clipPath id="clip0_2_36">
<rect width="23.9289" height="16" fill="white" transform="translate(0.312927)"/>
</clipPath>
<clipPath id="clip1_2_36">
<rect width="23.9289" height="16" fill="white" transform="translate(32.2419)"/>
</clipPath>
<clipPath id="clip2_2_36">
<rect width="23.9289" height="16" fill="white" transform="translate(64.1707)"/>
</clipPath>
<clipPath id="clip3_2_36">
<rect width="23.9289" height="16" fill="white" transform="translate(96.0997)"/>
</clipPath>
</defs>
</svg>
